<svg enable-background="new 0 0 32.6 32.6" viewBox="0 0 32.6 32.6" xmlns="http://www.w3.org/2000/svg"><ellipse cx="15.7" cy="27.2" opacity=".08" rx="9.7" ry="1.2"/><path d="m8.2 12.2c-1 0-2-.3-2.8-1-1.3-1.2-2-3.3-1.8-5.9 0-.3.3-.6.6-.6s.6.3.6.7c-.1 2.2.4 4 1.4 4.9.8.6 1.8.8 2.8.5.3-.1.7.2.7.5.1.3-.2.7-.5.7-.3.2-.7.2-1 .2z" fill="#fa0"/><path d="m28.9 11.6c0 3.1-1.3 4.3-4 4.3h-.7c-.4 0-.7.3-.7.6v9.4c0 .7-.6 1.2-1.3 1.2h-2c-.4 0-.7-.3-.7-.6v-6.5c0-.7-.6-1.3-1.3-1.3h-.1l-4.6.4-2.1.2c-.7 0-1.2.5-1.2 1.1v.1 5.4c0 .7-.6 1.2-1.3 1.2h-2c-.4 0-.7-.3-.7-.6v-11c0-3.2 2.6-5.9 6.1-6.2h.1l4-.3c1.1-.1 2.2.1 3.2.5.2.1.5 0 .7-.1 0 0 .1-.1.1-.1.2-.2.3-.4.6-.6.1-.1.2-.2.2-.3l.5-3c.1-.3.4-.6.8-.5.2 0 .3.1.4.2l1.7 2c.1.1.3.2.5.2 2 .2 3.8 2.1 3.8 4.3z" fill="#ffdda6"/><circle cx="23.5" cy="10.9" fill="#302a27" r=".6"/><g fill="#ffb031"><circle cx="23.4" cy="10.8" r=".2"/><g opacity=".5"><path d="m13.1 19.1v.1l-2 .2c-.6 0-1.1.5-1.1 1.1-.4-.4-.6-.9-.6-1.4 0-1 .8-1.9 1.9-1.9s1.8.8 1.8 1.9z"/><path d="m23.5 19v3.7c-1 0-1.9-.8-1.9-1.9s.9-1.8 1.9-1.8z"/><path d="m20 9.7c0 2.1-1.7 3.7-3.7 3.7s-3.7-1.7-3.7-3.7c0-.1 0-.3 0-.4h.1l3.7-.3c1-.1 2 .1 3 .5.2.1.5 0 .6-.1z"/><path d="m7.9 24.2c0 .7-.6 1.2-1.3 1.2-.2 0-.4-.1-.6-.2v-2.2c.6-.3 1.4-.1 1.7.5.1.3.2.5.2.7z"/></g><path d="m28.9 12.4h-.7s0 .8.6.9c-.1 0 .1-.8.1-.9z"/></g><path d="m28.7 13.2s-.2 1.1-1.1 1" fill="none" stroke="#ffb031" stroke-linecap="round" stroke-miterlimit="10" stroke-width=".25"/></svg>