<svg xmlns="http://www.w3.org/2000/svg" viewBox="0 0 64 64"><defs><style>.cls-1{isolation:isolate;}.cls-2{mix-blend-mode:multiply;}.cls-3{opacity:0.08;}.cls-4{fill:#302a27;}.cls-5{fill:#6d99b5;}.cls-6{opacity:0.5;}.cls-7{fill:#4e7b93;}</style></defs><title>cat</title><g class="cls-1"><g id="icons" class="cls-2"><ellipse class="cls-3" cx="30.5" cy="56" rx="15.5" ry="2"/><path class="cls-4" d="M20.45,32A6.54,6.54,0,0,1,16,30.37c-2.09-1.86-3.16-5.29-2.93-9.43A1,1,0,0,1,14.08,20,1,1,0,0,1,15,21.06c-.2,3.52.63,6.37,2.26,7.82a5.17,5.17,0,0,0,4.54,1,1,1,0,1,1,.35,2A9.92,9.92,0,0,1,20.45,32Z"/><path class="cls-5" d="M51,31.06C51,36,49,38,45,38H44a1,1,0,0,0-1,1V54a2,2,0,0,1-2,2H38a1,1,0,0,1-1-1V44.59a2,2,0,0,0-2.17-2L28,43.17l-3.16.26A2,2,0,0,0,23,45.25a.55.55,0,0,0,0,.18V54a2,2,0,0,1-2,2H18a1,1,0,0,1-1-1V37.28a10,10,0,0,1,9-10h.13l6-.5a10,10,0,0,1,4.76.77,1,1,0,0,0,1-.2.9.9,0,0,0,.15-.18,7,7,0,0,1,.82-1,.94.94,0,0,0,.27-.52l.8-4.8a1,1,0,0,1,1.79-.44l2.46,3.28a1,1,0,0,0,.68.38A7,7,0,0,1,51,31.06Z"/><circle class="cls-4" cx="45" cy="30" r="1"/><g class="cls-6"><path class="cls-7" d="M28,43a1,1,0,0,1,0,.17l-3.16.26A2,2,0,0,0,23,45.25,3,3,0,0,1,22,43a3,3,0,0,1,6,0Z"/><path class="cls-7" d="M43,43v6a3,3,0,0,1,0-6Z"/><path class="cls-7" d="M38,28a6,6,0,0,1-12,0,4.93,4.93,0,0,1,0-.67h.13l6-.5a10,10,0,0,1,4.76.77,1,1,0,0,0,1-.2A6.07,6.07,0,0,1,38,28Z"/><path class="cls-7" d="M20,51a2,2,0,0,1-3,1.73V49.27A2,2,0,0,1,20,51Z"/></g></g></g></svg>